<svg width="3090" height="495" viewBox="0 0 3090 495"
    xmlns="http://www.w3.org/2000/svg">
    <path id="Shape-copy" fill="#000000" fill-rule="evenodd" stroke="none" d="M 42 42 C 42 477.199951 41.943375 479.262848 35.782265 487.095428 C 31.594917 492.418762 26.696663 495 20.782265 495 C 15.952011 495 9.299995 492.299988 6 489 C 0.102127 483.102142 0 479 0 248.022949 C 0 13.045898 0 13.045898 6.943359 6.522949 C 13.886719 0 13.886719 0 230.443359 0 C 443 0 447.11084 0.11084 453 6 C 456.333344 9.333344 459 16 459 21 C 459 26 456.333344 32.666656 453 36 C 447.11853 41.88147 443 42 244.5 42 L 42 42 Z M 755.535034 495 C 541 495 536.890198 494.890198 531 489 C 527.699951 485.700012 525 479.774567 525 475.832336 C 525 471.890137 527.580322 465.477631 530.73407 461.582336 C 536.46814 454.5 536.46814 454.5 750.46936 453.690613 C 899.514282 453.126892 966.861084 453.871368 972.346191 456.143372 C 976.677734 457.937561 981.710571 462.673279 983.530334 466.667236 C 985.350098 470.661133 985.994995 476.307404 984.963501 479.214447 C 983.932007 482.121521 981.05896 486.862488 978.579102 489.75 C 974.361511 494.660675 959.945984 495 755.535034 495 Z M 1070.426636 495 C 1065.791992 495 1059.300049 492.299988 1056 489 C 1050.139893 483.139893 1050.000977 479.030579 1050.044312 312.75 C 1050.081055 171.503632 1050.860474 139.225586 1054.619385 123.279175 C 1057.111206 112.707764 1063.467651 95.832764 1068.744873 85.779175 C 1074.022095 75.725647 1087.150879 58.688965 1097.919922 47.919891 C 1108.688965 37.150818 1125.725586 24.022095 1135.779297 18.744934 C 1145.832764 13.467712 1162.707764 7.111206 1173.279297 4.619324 C 1188.094238 1.127197 1212.580322 0.078491 1280.102295 0.044373 C 1334.033447 0.017029 1373.815186 1.303284 1383.602417 3.390808 C 1392.346069 5.255768 1406.86853 10.030762 1415.874512 14.001953 C 1424.880615 17.973145 1439.368286 26.597168 1448.069336 33.166534 C 1456.770264 39.73584 1469.364624 52.362946 1476.056885 61.226746 C 1482.749268 70.090576 1491.671143 84.487061 1495.883545 93.218933 C 1500.095947 101.950836 1505.421875 117.961243 1507.719238 128.797577 C 1510.995117 144.251343 1511.906982 184.155212 1511.947998 313.845428 C 1511.999268 476.618225 1511.90332 479.313843 1505.782227 487.095428 C 1501.594849 492.418762 1496.696533 495 1490.782227 495 C 1485.951904 495 1479.379883 492.379913 1476.177612 489.177551 C 1470.57312 483.573181 1470.316772 476.860413 1469.330811 309.927551 C 1468.391846 150.962952 1467.8479 135.215424 1462.809448 121.096527 C 1459.786011 112.624603 1452.372314 99.15686 1446.334473 91.168213 C 1440.296631 83.179565 1428.638916 71.51825 1420.428223 65.25415 C 1412.060791 58.870422 1396.737305 51.170929 1385.561768 47.735046 C 1366.980713 42.022247 1359.319336 41.669556 1272.987549 42.552521 C 1180.351196 43.5 1180.351196 43.5 1160.449585 53.303101 C 1147.115723 59.871033 1135.096191 68.994751 1124.02832 80.949371 C 1114.000488 91.78064 1104.756226 105.612061 1100.504395 116.146271 C 1093.507568 133.481262 1093.498291 133.690338 1092 309.994141 C 1090.552368 480.323486 1090.296631 486.636902 1084.676636 490.744141 C 1081.473755 493.084839 1075.061279 495 1070.426636 495 Z M 1807.156738 423.544281 C 1824.122559 389.409973 1842.971191 349.125 1859.988525 312 C 1877.005737 274.875 1902.047363 220.199982 1915.636719 190.5 C 1929.226074 160.800018 1953.774536 107.474976 1970.188843 72 C 1992.816284 23.096558 2001.913818 6.435852 2007.812256 3.09906 C 2013.610474 -0.181091 2017.730957 -0.5495 2023.992432 1.652466 C 2029.024658 3.422241 2033.578125 7.976532 2035.348389 13.010437 C 2037.542725 19.249603 2037.081055 24.644531 2033.556519 33.957001 C 2030.945435 40.855652 1983.236938 145.050018 1927.537598 265.5 C 1871.838135 385.950012 1824.196777 486.862488 1821.667969 489.75 C 1819.091553 492.691925 1812.862793 495 1807.5 495 C 1802.155151 495 1795.879028 492.682068 1793.28479 489.75 C 1790.730103 486.862488 1765.469604 434.247803 1737.150513 372.82843 C 1708.831421 311.409058 1675.648682 239.504883 1663.411011 213.041382 C 1651.17334 186.577881 1627.336426 134.90506 1610.440063 98.212952 C 1593.543701 61.520813 1579.200195 27.244751 1578.565796 22.043884 C 1577.749512 15.352295 1579.252197 10.747803 1583.706055 6.293884 C 1587.167725 2.832275 1593.225342 0 1597.167725 0 C 1601.109863 0 1607.124023 2.362518 1610.532471 5.25 C 1613.94104 8.137482 1652.037231 87.449982 1695.190796 181.5 C 1738.344482 275.549988 1781.19043 368.484985 1790.404297 388.022156 L 1807.156738 423.544281 Z M 2334.464844 495 C 2130.124756 495 2115.625 494.658997 2111.23584 489.75 C 2108.653809 486.862488 2106.139648 482.475006 2105.648682 480 C 2105.157715 477.524994 2105.693604 471.958405 2106.839844 467.629761 C 2108.063965 463.006104 2112.348877 458.34082 2117.226563 456.320374 C 2123.268066 453.817993 2183.81958 453.101685 2339.530762 453.690613 C 2553.531982 454.5 2553.531982 454.5 2559.265869 461.582336 C 2562.419678 465.477631 2565 471.890137 2565 475.832336 C 2565 479.774567 2562.299805 485.700012 2559 489 C 2553.109863 494.890198 2549 495 2334.464844 495 Z M 2673 452.876831 C 3078.532227 454.5 3078.532227 454.5 3084.265869 461.582336 C 3087.419678 465.477631 3090 471.890137 3090 475.832336 C 3090 479.774567 3087.299805 485.700012 3084 489 C 3078.109863 494.890198 3074 495 2859.464844 495 C 2641.121826 495 2640.924805 494.994446 2635.214844 488.686401 C 2629.721191 482.617157 2629.462646 473.704895 2628.533691 258.436401 C 2628.002197 135.271362 2628.677246 28.465302 2630.033691 21.089539 C 2631.839111 11.271973 2634.564941 6.526855 2640.207764 3.378235 C 2645.030029 0.687561 2651.000488 -0.148376 2656.155518 1.145508 C 2661.737305 2.546448 2665.783203 6.535034 2668.697754 13.510437 C 2672.297852 22.127136 2673 58.812469 2673 238.342072 L 2673 452.876831 Z M 250.937805 269.061493 C 181.397034 269.370331 122.474991 268.856659 120 267.920044 C 117.525009 266.983398 113.137505 264.158997 110.25 261.643555 C 107.362495 259.128174 105 253.229324 105 248.535049 C 105 243.840775 107.700005 237.300018 111 234 C 116.816093 228.183929 121.000008 228 247.5 228 C 374 228 378.183929 228.183929 384 234 C 387.300018 237.300018 390 243.840775 390 248.535049 C 390 253.400024 387.285767 259.527527 383.687805 262.785034 C 377.712463 268.195007 370.628265 268.529968 250.937805 269.061493 Z M 755.108826 269.95578 C 592.064819 269.921539 542.817383 269.060211 537.049805 266.142029 C 532.952209 264.068787 528.323242 258.743042 526.763184 254.307129 C 524.853821 248.877869 525.049316 243.777969 527.361389 238.703613 C 529.250366 234.557678 533.879395 230.474548 537.647949 229.629944 C 541.416626 228.785431 639.987915 227.735687 756.695435 227.29718 C 906.16626 226.735657 970.458801 227.468567 974.195435 229.776733 C 977.112915 231.578918 981.208557 236.531677 983.296753 240.782822 C 986.18103 246.654556 986.28186 250.293869 983.716003 255.925278 C 981.858276 260.002502 977.048706 264.837219 973.028076 266.669189 C 967.88916 269.01062 903.15802 269.986877 755.108826 269.95578 Z M 2338.015869 269.078278 C 2185.672119 269.48703 2120.502441 268.684601 2115.684814 266.340729 C 2111.936523 264.517029 2107.944092 259.531799 2106.812744 255.262482 C 2105.681396 250.993103 2105.157715 245.474991 2105.648682 243 C 2106.139648 240.525009 2108.653809 236.137482 2111.23584 233.25 C 2115.625 228.341003 2130.124756 228 2334.464844 228 C 2549 228 2553.109863 228.109802 2559 234 C 2562.299805 237.300018 2565 243.225449 2565 247.167664 C 2565 251.109833 2562.419678 257.522369 2559.265869 261.417664 C 2553.531738 268.5 2553.531738 268.5 2338.015869 269.078278 Z M 756.072266 42 C 542.838989 42 540.734619 41.941345 532.904541 35.782227 C 527.662964 31.659241 525 26.679199 525 21 C 525 15.320801 527.662964 10.340759 532.904541 6.217773 C 540.734619 0.058655 542.838989 0 756.072266 0 C 960.802185 0 971.669556 0.270721 978.167603 5.532471 C 982.78833 9.274048 985 14.281067 985 21 C 985 27.718933 982.78833 32.725952 978.167603 36.467529 C 971.669556 41.729279 960.802185 42 756.072266 42 Z M 2334.262939 42 C 2144.591797 42 2118.551514 41.451172 2112.66748 37.329895 C 2107.722168 33.866089 2106 29.64801 2106 21 C 2106 12.35199 2107.722168 8.133911 2112.66748 4.670105 C 2118.551514 0.548828 2144.591797 0 2334.262939 0 C 2547.157227 0 2549.265625 0.058838 2557.095215 6.217773 C 2562.336914 10.340759 2565 15.320801 2565 21 C 2565 26.679199 2562.336914 31.659241 2557.095215 35.782227 C 2549.265625 41.941162 2547.157227 42 2334.262939 42 Z"/>
</svg>
